<svg width="115" height="24" viewBox="0 0 115 24" fill="none" xmlns="http://www.w3.org/2000/svg">
<path d="M8.72 3C8.752 3 8.768 3.048 8.768 3.144C8.768 3.24 8.752 3.288 8.72 3.288C8.192 3.288 7.808 3.336 7.568 3.432C7.328 3.528 7.16 3.696 7.064 3.936C6.984 4.16 6.944 4.512 6.944 4.992V18.672C6.944 20.256 6.576 21.512 5.84 22.44C5.104 23.384 4.04 23.856 2.648 23.856C2.104 23.856 1.68 23.76 1.376 23.568C1.056 23.392 0.896 23.144 0.896 22.824C0.896 22.584 0.968 22.392 1.112 22.248C1.256 22.104 1.456 22.032 1.712 22.032C1.984 22.032 2.192 22.088 2.336 22.2C2.48 22.328 2.632 22.512 2.792 22.752C2.936 22.976 3.064 23.136 3.176 23.232C3.288 23.328 3.448 23.376 3.656 23.376C4.232 23.376 4.656 23.04 4.928 22.368C5.216 21.712 5.36 20.648 5.36 19.176V4.944C5.36 4.464 5.304 4.112 5.192 3.888C5.08 3.664 4.856 3.512 4.52 3.432C4.2 3.336 3.696 3.288 3.008 3.288C2.976 3.288 2.96 3.24 2.96 3.144C2.96 3.048 2.976 3 3.008 3L4.4 3.024C5.136 3.056 5.712 3.072 6.128 3.072C6.544 3.072 7.056 3.056 7.664 3.024L8.72 3ZM21.4224 16.632C21.4864 16.632 21.5264 16.672 21.5424 16.752C21.5744 16.816 21.5584 16.864 21.4944 16.896L18.6864 18.216L18.5904 18.24C18.4304 18.24 18.2784 18.056 18.1344 17.688C17.9904 17.32 17.9184 16.84 17.9184 16.248V16.152C17.2944 16.856 16.6704 17.376 16.0464 17.712C15.4224 18.032 14.7744 18.192 14.1024 18.192C13.3024 18.192 12.6784 17.944 12.2304 17.448C11.7824 16.936 11.5584 16.2 11.5584 15.24V11.568C11.5584 10.944 11.5024 10.496 11.3904 10.224C11.2784 9.936 11.0944 9.792 10.8384 9.792C10.6144 9.792 10.3424 9.872 10.0224 10.032H9.99838C9.93438 10.032 9.88638 9.992 9.85438 9.912C9.82238 9.816 9.83838 9.76 9.90238 9.744L12.5664 8.544L12.6624 8.52C12.7104 8.52 12.7584 8.544 12.8064 8.592C12.8704 8.624 12.9024 8.664 12.9024 8.712V14.448C12.9024 16.304 13.5744 17.232 14.9184 17.232C15.4304 17.232 15.9504 17.104 16.4784 16.848C17.0064 16.576 17.4864 16.208 17.9184 15.744V11.568C17.9184 10.928 17.8624 10.472 17.7504 10.2C17.6544 9.928 17.4704 9.792 17.1984 9.792C16.9744 9.792 16.7024 9.872 16.3824 10.032H16.3584C16.2944 10.032 16.2464 9.992 16.2144 9.912C16.1984 9.816 16.2224 9.76 16.2864 9.744L18.9504 8.544L19.0224 8.52C19.0704 8.52 19.1184 8.544 19.1664 8.592C19.2304 8.624 19.2624 8.664 19.2624 8.712V15.432C19.2624 15.976 19.3264 16.368 19.4544 16.608C19.5824 16.848 19.7984 16.968 20.1024 16.968C20.3744 16.968 20.7984 16.856 21.3744 16.632H21.4224ZM22.5303 18C22.4823 18 22.4583 17.952 22.4583 17.856C22.4583 17.76 22.4823 17.712 22.5303 17.712C22.9623 17.712 23.2823 17.672 23.4903 17.592C23.6983 17.496 23.8423 17.336 23.9223 17.112C24.0023 16.872 24.0423 16.52 24.0423 16.056V3.648C24.0423 3.072 23.9863 2.656 23.8743 2.4C23.7623 2.144 23.5623 2.016 23.2743 2.016C23.0343 2.016 22.6663 2.128 22.1703 2.352H22.1223C22.0743 2.352 22.0343 2.312 22.0023 2.232C21.9863 2.152 22.0023 2.104 22.0503 2.088L25.1223 0.623999C25.1543 0.607999 25.1943 0.599999 25.2423 0.599999C25.2743 0.599999 25.3143 0.623999 25.3623 0.671999C25.4263 0.703999 25.4583 0.743999 25.4583 0.792V16.056C25.4583 16.52 25.4903 16.864 25.5543 17.088C25.6343 17.312 25.7783 17.472 25.9863 17.568C26.1943 17.664 26.5143 17.712 26.9463 17.712C26.9943 17.712 27.0183 17.76 27.0183 17.856C27.0183 17.952 26.9943 18 26.9463 18C26.5943 18 26.3063 17.992 26.0823 17.976L24.7383 17.952L23.4423 17.976C23.2183 17.992 22.9143 18 22.5303 18ZM29.0298 18C28.9978 18 28.9818 17.952 28.9818 17.856C28.9818 17.76 28.9978 17.712 29.0298 17.712C29.4618 17.712 29.7818 17.672 29.9898 17.592C30.2138 17.496 30.3658 17.336 30.4458 17.112C30.5258 16.872 30.5658 16.52 30.5658 16.056V11.568C30.5658 10.992 30.5018 10.576 30.3738 10.32C30.2618 10.064 30.0618 9.936 29.7738 9.936C29.4858 9.936 29.1258 10.048 28.6938 10.272H28.6698C28.6058 10.272 28.5578 10.232 28.5258 10.152C28.4938 10.072 28.5018 10.016 28.5498 9.984L31.6698 8.544L31.7658 8.52C31.7978 8.52 31.8378 8.544 31.8858 8.592C31.9338 8.624 31.9578 8.664 31.9578 8.712C31.9578 8.824 31.9498 9.144 31.9338 9.672C31.9178 10.2 31.9098 10.824 31.9098 11.544V16.056C31.9098 16.536 31.9498 16.888 32.0298 17.112C32.1098 17.336 32.2538 17.496 32.4618 17.592C32.6698 17.672 32.9898 17.712 33.4218 17.712C33.4698 17.712 33.4938 17.76 33.4938 17.856C33.4938 17.952 33.4698 18 33.4218 18C33.0538 18 32.7578 17.992 32.5338 17.976L31.2378 17.952L29.9418 17.976C29.7178 17.992 29.4138 18 29.0298 18ZM31.0458 5.712C30.7098 5.712 30.4458 5.624 30.2538 5.448C30.0778 5.272 29.9898 5.024 29.9898 4.704C29.9898 4.384 30.0778 4.136 30.2538 3.96C30.4458 3.784 30.7098 3.696 31.0458 3.696C31.3658 3.696 31.6138 3.784 31.7898 3.96C31.9658 4.136 32.0538 4.384 32.0538 4.704C32.0538 5.024 31.9658 5.272 31.7898 5.448C31.6138 5.624 31.3658 5.712 31.0458 5.712ZM44.2803 16.704C44.3443 16.704 44.3843 16.744 44.4003 16.824C44.4163 16.888 44.3923 16.936 44.3283 16.968L41.8563 18.144C41.7923 18.176 41.7283 18.192 41.6643 18.192C41.4563 18.192 41.2723 18.056 41.1123 17.784C40.9523 17.512 40.8483 17.136 40.8003 16.656L39.3123 17.448C38.8163 17.704 38.4083 17.888 38.0883 18C37.7683 18.112 37.4563 18.168 37.1523 18.168C36.6563 18.168 36.2723 18.04 36.0003 17.784C35.7443 17.512 35.6163 17.176 35.6163 16.776C35.6163 16.344 35.7763 16 36.0963 15.744C36.4323 15.472 37.0243 15.192 37.8723 14.904L40.7763 13.872V11.88C40.7763 10.824 40.6403 10.088 40.3683 9.672C40.0963 9.24 39.7203 9.024 39.2403 9.024C38.6963 9.024 38.2723 9.216 37.9683 9.6C37.6643 9.984 37.4803 10.448 37.4163 10.992C37.3523 11.6 37.0563 11.904 36.5283 11.904C36.2723 11.904 36.0723 11.84 35.9283 11.712C35.7843 11.584 35.7123 11.408 35.7123 11.184C35.7123 10.816 35.9523 10.424 36.4323 10.008C36.9123 9.592 37.4883 9.24 38.1603 8.952C38.8483 8.664 39.4643 8.52 40.0083 8.52C40.6483 8.52 41.1603 8.744 41.5443 9.192C41.9283 9.624 42.1203 10.28 42.1203 11.16V15.408C42.1203 15.968 42.1923 16.376 42.3363 16.632C42.4803 16.888 42.7203 17.016 43.0563 17.016C43.3603 17.016 43.7523 16.912 44.2323 16.704H44.2803ZM40.7763 16.32V16.176V14.16L38.3043 15.096C37.9363 15.24 37.6723 15.4 37.5123 15.576C37.3683 15.752 37.2963 15.976 37.2963 16.248C37.2963 16.584 37.3923 16.848 37.5843 17.04C37.7763 17.216 38.0243 17.304 38.3283 17.304C38.6323 17.304 38.9603 17.224 39.3123 17.064L40.7763 16.32ZM56.255 17.712C56.303 17.712 56.327 17.76 56.327 17.856C56.327 17.952 56.303 18 56.255 18C55.887 18 55.599 17.992 55.391 17.976L54.095 17.952L52.775 17.976C52.567 17.992 52.279 18 51.911 18C51.863 18 51.839 17.952 51.839 17.856C51.839 17.76 51.863 17.712 51.911 17.712C52.343 17.712 52.663 17.672 52.871 17.592C53.079 17.496 53.215 17.336 53.279 17.112C53.359 16.888 53.399 16.536 53.399 16.056V12.168C53.399 11.224 53.215 10.528 52.847 10.08C52.495 9.632 51.943 9.408 51.191 9.408C50.695 9.408 50.191 9.544 49.679 9.816C49.183 10.072 48.727 10.432 48.311 10.896V16.056C48.311 16.536 48.343 16.888 48.407 17.112C48.487 17.336 48.631 17.496 48.839 17.592C49.047 17.672 49.367 17.712 49.799 17.712C49.847 17.712 49.871 17.76 49.871 17.856C49.871 17.952 49.847 18 49.799 18C49.431 18 49.143 17.992 48.935 17.976L47.639 17.952L46.319 17.976C46.111 17.992 45.823 18 45.455 18C45.407 18 45.383 17.952 45.383 17.856C45.383 17.76 45.407 17.712 45.455 17.712C45.887 17.712 46.207 17.672 46.415 17.592C46.623 17.496 46.759 17.336 46.823 17.112C46.903 16.888 46.943 16.536 46.943 16.056V11.304C46.943 10.76 46.879 10.368 46.751 10.128C46.623 9.888 46.407 9.768 46.103 9.768C45.847 9.768 45.415 9.888 44.807 10.128H44.759C44.695 10.128 44.647 10.096 44.615 10.032C44.599 9.952 44.623 9.896 44.687 9.864L47.471 8.544C47.503 8.528 47.551 8.52 47.615 8.52C47.759 8.52 47.911 8.704 48.071 9.072C48.231 9.44 48.311 9.912 48.311 10.488C48.919 9.784 49.519 9.264 50.111 8.928C50.719 8.592 51.343 8.424 51.983 8.424C52.879 8.424 53.567 8.672 54.047 9.168C54.527 9.664 54.767 10.392 54.767 11.352V16.056C54.767 16.536 54.799 16.888 54.863 17.112C54.943 17.336 55.087 17.496 55.295 17.592C55.503 17.672 55.823 17.712 56.255 17.712ZM81.8864 17.712C81.9344 17.712 81.9584 17.76 81.9584 17.856C81.9584 17.952 81.9344 18 81.8864 18C81.3904 18 80.9984 17.992 80.7104 17.976L79.0544 17.952L77.5184 17.976C77.2624 17.992 76.9024 18 76.4384 18C76.4064 18 76.3904 17.952 76.3904 17.856C76.3904 17.76 76.4064 17.712 76.4384 17.712C76.9824 17.712 77.3824 17.672 77.6384 17.592C77.9104 17.496 78.0864 17.336 78.1664 17.112C78.2624 16.888 78.2944 16.536 78.2624 16.056L77.8304 5.136L72.3584 17.832C72.3264 17.896 72.2624 17.928 72.1664 17.928C72.0864 17.928 72.0144 17.896 71.9504 17.832L66.0464 5.28L65.8304 15.384C65.8144 16.232 65.9584 16.832 66.2624 17.184C66.5664 17.536 67.1024 17.712 67.8704 17.712C67.9024 17.712 67.9184 17.76 67.9184 17.856C67.9184 17.952 67.9024 18 67.8704 18C67.4224 18 67.0784 17.992 66.8384 17.976L65.5424 17.952L64.2944 17.976C64.0704 17.992 63.7504 18 63.3344 18C63.3024 18 63.2864 17.952 63.2864 17.856C63.2864 17.76 63.3024 17.712 63.3344 17.712C64.0064 17.712 64.4864 17.536 64.7744 17.184C65.0784 16.816 65.2384 16.216 65.2544 15.384L65.4704 4.248C64.9904 3.608 64.3344 3.288 63.5024 3.288C63.4704 3.288 63.4544 3.24 63.4544 3.144C63.4544 3.048 63.4704 3 63.5024 3L64.3904 3.024C64.5504 3.04 64.7744 3.048 65.0624 3.048C65.3504 3.048 65.5904 3.04 65.7824 3.024C65.9904 3.008 66.1504 3 66.2624 3C66.4704 3 66.6384 3.08 66.7664 3.24C66.9104 3.384 67.1104 3.72 67.3664 4.248L72.7184 15.528L77.9504 3.6C78.1264 3.2 78.3664 3 78.6704 3C78.7504 3 78.8624 3.008 79.0064 3.024C79.1664 3.04 79.3744 3.048 79.6304 3.048L80.7584 3.024C80.9344 3.008 81.1984 3 81.5504 3C81.5984 3 81.6224 3.048 81.6224 3.144C81.6224 3.24 81.5984 3.288 81.5504 3.288C80.7504 3.288 80.1744 3.408 79.8224 3.648C79.4864 3.872 79.3264 4.304 79.3424 4.944L79.8224 16.056C79.8384 16.552 79.8944 16.912 79.9904 17.136C80.1024 17.36 80.2944 17.512 80.5664 17.592C80.8384 17.672 81.2784 17.712 81.8864 17.712ZM92.4209 16.704C92.4849 16.704 92.5249 16.744 92.5409 16.824C92.5569 16.888 92.5329 16.936 92.4689 16.968L89.9969 18.144C89.9329 18.176 89.8689 18.192 89.8049 18.192C89.5969 18.192 89.4129 18.056 89.2529 17.784C89.0929 17.512 88.9889 17.136 88.9409 16.656L87.4529 17.448C86.9569 17.704 86.5489 17.888 86.2289 18C85.9089 18.112 85.5969 18.168 85.2929 18.168C84.7969 18.168 84.4129 18.04 84.1409 17.784C83.8849 17.512 83.7569 17.176 83.7569 16.776C83.7569 16.344 83.9169 16 84.2369 15.744C84.5729 15.472 85.1649 15.192 86.0129 14.904L88.9169 13.872V11.88C88.9169 10.824 88.7809 10.088 88.5089 9.672C88.2369 9.24 87.8609 9.024 87.3809 9.024C86.8369 9.024 86.4129 9.216 86.1089 9.6C85.8049 9.984 85.6209 10.448 85.5569 10.992C85.4929 11.6 85.1969 11.904 84.6689 11.904C84.4129 11.904 84.2129 11.84 84.0689 11.712C83.9249 11.584 83.8529 11.408 83.8529 11.184C83.8529 10.816 84.0929 10.424 84.5729 10.008C85.0529 9.592 85.6289 9.24 86.3009 8.952C86.9889 8.664 87.6049 8.52 88.1489 8.52C88.7889 8.52 89.3009 8.744 89.6849 9.192C90.0689 9.624 90.2609 10.28 90.2609 11.16V15.408C90.2609 15.968 90.3329 16.376 90.4769 16.632C90.6209 16.888 90.8609 17.016 91.1969 17.016C91.5009 17.016 91.8929 16.912 92.3729 16.704H92.4209ZM88.9169 16.32V16.176V14.16L86.4449 15.096C86.0769 15.24 85.8129 15.4 85.6529 15.576C85.5089 15.752 85.4369 15.976 85.4369 16.248C85.4369 16.584 85.5329 16.848 85.7249 17.04C85.9169 17.216 86.1649 17.304 86.4689 17.304C86.7729 17.304 87.1009 17.224 87.4529 17.064L88.9169 16.32ZM98.0596 18.288C97.0196 18.288 96.1476 18.064 95.4436 17.616C94.7396 17.152 94.2196 16.56 93.8836 15.84C93.5476 15.12 93.3796 14.36 93.3796 13.56C93.3796 12.536 93.6356 11.648 94.1476 10.896C94.6596 10.128 95.3156 9.544 96.1156 9.144C96.9316 8.728 97.7636 8.52 98.6116 8.52C99.3156 8.52 99.9556 8.664 100.532 8.952C101.124 9.224 101.42 9.568 101.42 9.984C101.42 10.192 101.34 10.376 101.18 10.536C101.036 10.68 100.836 10.752 100.58 10.752C100.148 10.752 99.7956 10.488 99.5236 9.96C99.3156 9.64 99.0916 9.4 98.8516 9.24C98.6116 9.08 98.2676 9 97.8196 9C96.9236 9 96.2196 9.352 95.7076 10.056C95.2116 10.744 94.9636 11.672 94.9636 12.84C94.9636 14.184 95.2996 15.288 95.9716 16.152C96.6436 17.016 97.6516 17.448 98.9956 17.448C99.9716 17.448 100.788 17.184 101.444 16.656H101.468C101.516 16.656 101.556 16.68 101.588 16.728C101.636 16.776 101.644 16.816 101.612 16.848C101.052 17.344 100.484 17.712 99.9076 17.952C99.3476 18.176 98.7316 18.288 98.0596 18.288ZM113.975 17.712C114.023 17.712 114.047 17.76 114.047 17.856C114.047 17.952 114.023 18 113.975 18C113.607 18 113.311 17.992 113.087 17.976L111.791 17.952L110.063 17.976C109.807 17.992 109.463 18 109.031 18C108.999 18 108.983 17.952 108.983 17.856C108.983 17.76 108.999 17.712 109.031 17.712C109.831 17.712 110.231 17.56 110.231 17.256C110.231 17.112 110.159 16.936 110.015 16.728L107.063 12.72L105.863 13.656V16.056C105.863 16.52 105.903 16.872 105.983 17.112C106.063 17.336 106.207 17.496 106.415 17.592C106.623 17.672 106.943 17.712 107.375 17.712C107.423 17.712 107.447 17.76 107.447 17.856C107.447 17.952 107.423 18 107.375 18C107.007 18 106.711 17.992 106.487 17.976L105.191 17.952L103.895 17.976C103.671 17.992 103.375 18 103.007 18C102.959 18 102.935 17.952 102.935 17.856C102.935 17.76 102.959 17.712 103.007 17.712C103.439 17.712 103.759 17.672 103.967 17.592C104.175 17.496 104.319 17.336 104.399 17.112C104.479 16.872 104.519 16.52 104.519 16.056V3.648C104.519 3.072 104.463 2.656 104.351 2.4C104.239 2.144 104.039 2.016 103.751 2.016C103.511 2.016 103.143 2.128 102.647 2.352H102.599C102.551 2.352 102.511 2.312 102.479 2.232C102.447 2.152 102.463 2.104 102.527 2.088L105.527 0.623999L105.647 0.599999C105.695 0.599999 105.743 0.623999 105.791 0.671999C105.839 0.703999 105.863 0.743999 105.863 0.792V13.272L109.079 10.68C109.591 10.28 109.847 9.928 109.847 9.624C109.847 9.224 109.391 9.024 108.479 9.024C108.431 9.024 108.407 8.976 108.407 8.88C108.407 8.784 108.431 8.736 108.479 8.736C108.911 8.736 109.239 8.744 109.463 8.76L111.215 8.784L112.823 8.76C113.031 8.744 113.319 8.736 113.687 8.736C113.735 8.736 113.759 8.784 113.759 8.88C113.759 8.976 113.735 9.024 113.687 9.024C113.095 9.024 112.439 9.168 111.719 9.456C110.999 9.744 110.279 10.176 109.559 10.752L108.167 11.856L111.215 16.056C112.015 17.16 112.935 17.712 113.975 17.712Z" fill="black"/>
</svg>
